<?xml version="1.0" encoding="utf-8"?>
<!-- Generator: Adobe Illustrator 24.0.0, SVG Export Plug-In . SVG Version: 6.00 Build 0)  -->
<svg version="1.1" id="Capa_1" xmlns="http://www.w3.org/2000/svg" xmlns:xlink="http://www.w3.org/1999/xlink" x="0px" y="0px"
	 viewBox="0 0 426.7 426.7" style="enable-background:new 0 0 426.7 426.7;" xml:space="preserve">
<style type="text/css">
	.st0{fill:#7E8890;}
</style>
<g>
	<path class="st0" d="M213.3,0C95.5,0,0,95.5,0,213.3s95.5,213.3,213.3,213.3s213.3-95.5,213.3-213.3S331.2,0,213.3,0z M234.7,362.7
		H192V320h42.7L234.7,362.7L234.7,362.7z M278.7,197.4l-19.1,19.6c-15.4,15.4-25,28.3-25,60.3H192v-10.7c0-23.6,9.6-44.9,25-60.4
		l26.6-26.9c7.7-7.7,12.5-18.3,12.5-30.1c0-23.6-19.1-42.7-42.7-42.7s-42.7,19.1-42.7,42.7H128c0-47.1,38.2-85.3,85.3-85.3
		s85.3,38.2,85.3,85.3C298.7,168.1,291.1,185.1,278.7,197.4z"/>
</g>
</svg>
