<?xml version="1.0" encoding="utf-8"?>
<!-- Generator: Adobe Illustrator 24.0.0, SVG Export Plug-In . SVG Version: 6.00 Build 0)  -->
<svg version="1.1" id="Layer_1" xmlns="http://www.w3.org/2000/svg" xmlns:xlink="http://www.w3.org/1999/xlink" x="0px" y="0px"
	 viewBox="0 0 100 100" style="enable-background:new 0 0 500 500;" xml:space="preserve">
<style type="text/css">
	.st0{fill:#7F8890;}
	.st1{fill:#FCFDFD;} 
	.st2{fill:#FDFDFD;}
</style>
<path class="st0" d="M55,101c-18.7,0-36.8,0-55,0C0,67.7,0,34.3,0,1c33.3,0,66.7,0,100,0c0,33.3,0,66.7,0,100
	C85.2,101,70.3,101,55,101 M63.2,81.8c3.8-2.3,7.9-4.3,11.4-7c5.7-4.5,5.6-8.4-0.8-11.9c-5.6-3-11.9-5.2-18.2-6.3
	c-11-1.9-21.6,0.3-31,6.6c-5.5,3.7-5.7,7.1-0.9,11.1C35.2,83.6,47.7,88.5,63.2,81.8 M35,36c1.5,6.7,5.4,11,12.3,12.1
	c6.2,1,11.1-1.3,14.6-6.5c3.4-5.1,3-12-0.7-16.8c-3.8-4.9-10.1-6.9-16.1-5C38.4,21.9,35,27.2,35,36z"/>
<path class="st1" d="M62.8,81.9c-15.1,6.6-27.6,1.7-39.1-7.7c-4.8-3.9-4.6-7.4,0.9-11.1c9.4-6.3,20-8.5,31-6.6
	c6.3,1.1,12.6,3.3,18.2,6.3c6.4,3.5,6.5,7.4,0.8,11.9C71.1,77.5,67,79.4,62.8,81.9z"/>
<path class="st2" d="M35,35.6c0-8.5,3.5-13.7,10.1-15.8c5.9-1.9,12.2,0.1,16.1,5c3.7,4.8,4.1,11.7,0.7,16.8
	c-3.5,5.2-8.4,7.5-14.6,6.5C40.4,47.1,36.5,42.7,35,35.6z"/>
</svg>
